<svg width="18" height="18" viewBox="0 0 18 18" fill="none" xmlns="http://www.w3.org/2000/svg">
<g clip-path="url(#clip0_1_366)">
<path d="M15.0001 1.5V4.5M16.5001 3H13.5001M8.26284 2.1105C8.29497 1.93845 8.38627 1.78306 8.52091 1.67123C8.65555 1.55941 8.82506 1.4982 9.00009 1.4982C9.17511 1.4982 9.34462 1.55941 9.47926 1.67123C9.61391 1.78306 9.7052 1.93845 9.73734 2.1105L10.5256 6.279C10.5816 6.57536 10.7256 6.84796 10.9389 7.06122C11.1521 7.27449 11.4247 7.41851 11.7211 7.4745L15.8896 8.26275C16.0616 8.29488 16.217 8.38618 16.3288 8.52082C16.4407 8.65546 16.5019 8.82497 16.5019 9C16.5019 9.17502 16.4407 9.34453 16.3288 9.47917C16.217 9.61382 16.0616 9.70511 15.8896 9.73725L11.7211 10.5255C11.4247 10.5815 11.1521 10.7255 10.9389 10.9388C10.7256 11.152 10.5816 11.4246 10.5256 11.721L9.73734 15.8895C9.7052 16.0615 9.61391 16.2169 9.47926 16.3288C9.34462 16.4406 9.17511 16.5018 9.00009 16.5018C8.82506 16.5018 8.65555 16.4406 8.52091 16.3288C8.38627 16.2169 8.29497 16.0615 8.26284 15.8895L7.47459 11.721C7.4186 11.4246 7.27458 11.152 7.06131 10.9388C6.84805 10.7255 6.57545 10.5815 6.27909 10.5255L2.11059 9.73725C1.93854 9.70511 1.78315 9.61382 1.67133 9.47917C1.5595 9.34453 1.49829 9.17502 1.49829 9C1.49829 8.82497 1.5595 8.65546 1.67133 8.52082C1.78315 8.38618 1.93854 8.29488 2.11059 8.26275L6.27909 7.4745C6.57545 7.41851 6.84805 7.27449 7.06131 7.06122C7.27458 6.84796 7.4186 6.57536 7.47459 6.279L8.26284 2.1105Z" stroke="#047857" stroke-width="1.5" stroke-linecap="round" stroke-linejoin="round"/>
<path d="M3 16.5C3.82843 16.5 4.5 15.8284 4.5 15C4.5 14.1716 3.82843 13.5 3 13.5C2.17157 13.5 1.5 14.1716 1.5 15C1.5 15.8284 2.17157 16.5 3 16.5Z" stroke="#047857" stroke-width="1.5" stroke-linecap="round" stroke-linejoin="round"/>
</g>
<defs>
<clipPath id="clip0_1_366">
<rect width="18" height="18" fill="white"/>
</clipPath>
</defs>
</svg>
